<?xml version="1.0" encoding="UTF-8"?>
<svg preserveAspectRatio="none" version="1.1" viewBox="0 0 320 270" xmlns="http://www.w3.org/2000/svg">
<g fill="none" mask="url(#a)">
<path d="m-58.936 150c5.9964-15.4 17.996-82 30-77 11.996 5 17.996 91.8 30 102 11.996 10.2 17.996-57.4 30-51 11.996 6.4 17.996 95 30 83 11.996-12 17.996-139.4 30-143 11.996-3.6 17.996 119.4 30 125 11.996 5.6 17.996-88 30-97 11.996-9 17.996 55.2 30 52 11.996-3.2 17.996-70.8 30-68 11.996 2.8 17.996 77 30 82 11.996 5 17.996-62.6 30-57 11.996 5.6 20.216 81.6 30 85 9.7864 3.4 15.146-54.4 18.936-68" stroke="rgba(255, 22, 102, 1)" stroke-width="2"/>
</g>
<defs>
<mask id="a">
<rect width="320" height="270" fill="#fff"/>
</mask>
</defs>
</svg>
