<?xml version="1.0" encoding="UTF-8"?>
<svg preserveAspectRatio="none" version="1.1" viewBox="0 0 320 270" xmlns="http://www.w3.org/2000/svg">
<g fill="none" mask="url(#a)" stroke-width="2">
<path d="m-200.27 96c21.399 17.4 64.199 81.2 107 87 42.799 5.8 64.199-59.4 107-58 42.799 1.4 64.199 74.2 107 65 42.799-9.2 67.149-104.6 107-111 39.849-6.4 73.819 63.2 92.269 79" stroke="rgba(0, 188, 124, 1)"/>
<path d="m-45.055 193c21.395-24.6 64.195-116 107-123 42.795-7 64.195 83.4 107 88 42.795 4.6 64.195-62.4 107-65 42.795-2.6 98.185 49.4 107 52 8.8151 2.6-50.355-31.2-62.945-39" stroke="rgba(34, 151, 245, 1)"/>
</g>
<defs>
<mask id="a">
<rect width="320" height="270" fill="#fff"/>
</mask>
</defs>
</svg>
