<svg id="Layer_1" data-name="Layer 1" xmlns="http://www.w3.org/2000/svg" viewBox="0 0 24 24"><defs><style>.cls-1{fill:#11cdef;opacity:0.8;}</style></defs><path class="cls-1" d="M22.05,12.05a.58.58,0,0,0-.74-.34l-5.39,2,4.36-4.35a.54.54,0,0,0,.17-.4.58.58,0,0,0-.17-.41L16.91,5.15a.58.58,0,0,0-.81,0L11.83,9.42l2.39-5.68a.61.61,0,0,0,0-.44A.59.59,0,0,0,13.92,3L9.53,1.14a.56.56,0,0,0-.75.3L6.41,7.05v-6A.58.58,0,0,0,5.84.5h-5a.58.58,0,0,0-.57.58V22.92a.58.58,0,0,0,.57.58h5a.58.58,0,0,0,.19,0,.71.71,0,0,0,.2,0,.79.79,0,0,0,.2,0l16.91-6.2a.58.58,0,0,0,.35-.73ZM3.68,22.35H1.43V1.65H5.26v20.7H3.68ZM12.94,3.82,9.67,11.57,9.08,13l-.59,1.4-1,2.4-.61,1.45-.46,1.08V10l3.2-7.59ZM8.34,17.69,9,16.24l1.7-4L16.5,6.37l2.56,2.56-5.7,5.69-1.94,1.94-4.5,4.49Zm-.43,4L14,15.62,21.17,13l1.24,3.39ZM3.35,20H3.27a.85.85,0,0,0-.54.27.78.78,0,0,0-.19.36,1.25,1.25,0,0,0,0,.19.89.89,0,0,0,.16.49.84.84,0,0,0,.68.34h.11a.78.78,0,0,0,.44-.2,1.43,1.43,0,0,0,.15-.18.85.85,0,0,0,.12-.36v-.08A.82.82,0,0,0,3.35,20Z"/></svg>