<svg id="Layer_1" data-name="Layer 1" xmlns="http://www.w3.org/2000/svg" viewBox="0 0 24 24"><defs><style>.cls-1{fill:#feb969;}</style></defs><path class="cls-1" d="M12,0A12,12,0,1,0,24,12,12,12,0,0,0,12,0Zm0,21.51A9.52,9.52,0,1,1,21.52,12,9.51,9.51,0,0,1,12,21.51Zm2.05-10.19a17.23,17.23,0,0,0-1.81-.81,3.92,3.92,0,0,1-1-.55.87.87,0,0,1,.21-1.54,1.79,1.79,0,0,1,.61-.12,4.58,4.58,0,0,1,2.27.45c.36.18.48.12.6-.25s.24-.8.35-1.2A.41.41,0,0,0,15,6.75a6,6,0,0,0-1.44-.43c-.65-.1-.65-.1-.65-.76,0-.92,0-.92-.93-.92h-.4c-.43,0-.51.09-.52.52v.59c0,.58,0,.57-.56.77A3.07,3.07,0,0,0,8.28,9.38a2.93,2.93,0,0,0,1.65,2.8,19.38,19.38,0,0,0,2.08.93,3,3,0,0,1,.75.45,1,1,0,0,1-.25,1.81,2.51,2.51,0,0,1-1.33.17,5.69,5.69,0,0,1-2-.6c-.37-.19-.48-.14-.61.26s-.21.71-.3,1.06-.09.59.37.81a6.67,6.67,0,0,0,1.82.52c.49.08.51.1.52.61v.7c0,.29.15.46.45.46s.68,0,1,0a.39.39,0,0,0,.42-.44c0-.32,0-.63,0-1a.49.49,0,0,1,.43-.57,3.43,3.43,0,0,0,1.8-1.15A3.26,3.26,0,0,0,14.05,11.32Z"/></svg>