<svg id="Layer_1" data-name="Layer 1" xmlns="http://www.w3.org/2000/svg" viewBox="0 0 24 24"><defs><style>.cls-1{fill:none;stroke:#fb6340;stroke-miterlimit:10;stroke-width:2px;opacity:0.8;}</style></defs><path id="settings" class="cls-1" d="M12,9a3,3,0,1,1-3,3A3,3,0,0,1,12,9Zm7.4,6a1.66,1.66,0,0,0,.33,1.82l.06.06A2,2,0,1,1,17,19.71l-.06-.06a1.66,1.66,0,0,0-2.35,0,1.61,1.61,0,0,0-.47,1.14V21a2,2,0,0,1-4,0v-.09A1.64,1.64,0,0,0,9,19.4a1.66,1.66,0,0,0-1.82.33l-.06.06A2,2,0,0,1,4.29,17l.06-.06a1.66,1.66,0,0,0,0-2.35,1.61,1.61,0,0,0-1.14-.47H3a2,2,0,0,1,0-4h.09A1.64,1.64,0,0,0,4.6,9a1.66,1.66,0,0,0-.33-1.82l-.06-.06A2,2,0,0,1,7,4.29l.06.06a1.66,1.66,0,0,0,1.82.33H9a1.65,1.65,0,0,0,1-1.51V3a2,2,0,0,1,4,0v.09a1.66,1.66,0,0,0,1.68,1.65,1.69,1.69,0,0,0,1.14-.47l.06-.06A2,2,0,1,1,19.71,7l-.06.06a1.66,1.66,0,0,0-.33,1.82V9a1.65,1.65,0,0,0,1.51,1H21a2,2,0,0,1,0,4h-.09A1.65,1.65,0,0,0,19.4,15Z"/></svg>