<svg id="Layer_1" data-name="Layer 1" xmlns="http://www.w3.org/2000/svg" viewBox="0 0 24 24"><defs><style>.cls-1{fill:none;stroke:#11cdef;stroke-miterlimit:10;stroke-width:2px;opacity:0.8;}</style></defs><path id="package" class="cls-1" d="M16.82,9.19,7.18,3.63M21.64,16.26V7.69a2.14,2.14,0,0,0-1.07-1.85l-7.5-4.28a2.1,2.1,0,0,0-2.14,0L3.43,5.84A2.14,2.14,0,0,0,2.36,7.69v8.57a2.14,2.14,0,0,0,1.07,1.85l7.5,4.28a2.15,2.15,0,0,0,2.14,0l7.5-4.28A2.14,2.14,0,0,0,21.64,16.26Zm-19-9.68L12,12l9.35-5.4M12,22.77V12"/></svg>